<?xml version="1.0" encoding="UTF-8"?>
<svg viewBox="0 0 512 512" xmlns="http://www.w3.org/2000/svg">
  <defs>
    <linearGradient id="sky" x1="0" y1="0" x2="0" y2="1">
      <stop offset="0" stop-color="#050B1C"/><stop offset="0.5" stop-color="#0B1C3C"/>
      <stop offset="0.86" stop-color="#1B2F58"/><stop offset="1" stop-color="#04091A"/>
    </linearGradient>
    <radialGradient id="aura" cx="0.42" cy="0.34" r="0.6">
      <stop offset="0" stop-color="#FFE7A8" stop-opacity="0.4"/>
      <stop offset="0.5" stop-color="#9FD8E8" stop-opacity="0.1"/>
      <stop offset="1" stop-color="#FFE7A8" stop-opacity="0"/>
    </radialGradient>
    <linearGradient id="wing" x1="0.95" y1="0.05" x2="0.1" y2="0.9">
      <stop offset="0" stop-color="#FFFDF4"/><stop offset="0.45" stop-color="#E8F2F7"/>
      <stop offset="0.78" stop-color="#A2DBEB"/><stop offset="1" stop-color="#5FBFD8"/>
    </linearGradient>
    <linearGradient id="wing2" x1="0.9" y1="0.05" x2="0.2" y2="0.95">
      <stop offset="0" stop-color="#FFFEF8"/><stop offset="0.6" stop-color="#DBEDF4"/><stop offset="1" stop-color="#88D2E5"/>
    </linearGradient>
    <linearGradient id="bld" x1="0" y1="0" x2="0" y2="1">
      <stop offset="0" stop-color="#17263F"/><stop offset="1" stop-color="#060E1E"/>
    </linearGradient>
    <linearGradient id="gild" x1="0" y1="0" x2="0" y2="1">
      <stop offset="0" stop-color="#FFE9B0" stop-opacity="0.8"/>
      <stop offset="0.5" stop-color="#D6A84F" stop-opacity="0.26"/>
      <stop offset="1" stop-color="#0A1628" stop-opacity="0"/>
    </linearGradient>
  </defs>

  <rect width="512" height="512" rx="96" fill="url(#sky)"/>
  <g fill="#EAF2F6" opacity="0.85">
    <circle cx="64" cy="58" r="1.4"/><circle cx="150" cy="40" r="1"/><circle cx="318" cy="38" r="1.3"/>
    <circle cx="430" cy="64" r="1.2"/><circle cx="466" cy="118" r="1"/><circle cx="40" cy="140" r="1"/>
    <circle cx="232" cy="50" r="0.9"/><circle cx="372" cy="46" r="1"/>
  </g>
  <ellipse cx="226" cy="196" rx="216" ry="166" fill="url(#aura)"/>

  <g fill="url(#bld)">
    <rect x="18" y="392" width="42" height="88"/><rect x="60" y="372" width="32" height="108"/>
    <rect x="92" y="386" width="26" height="94"/><rect x="332" y="386" width="26" height="94"/>
    <rect x="358" y="372" width="36" height="108"/><rect x="394" y="392" width="34" height="88"/>
    <rect x="428" y="404" width="46" height="76"/>
  </g>
  <g>
    <rect x="150" y="322" width="42" height="158" fill="url(#bld)"/>
    <path d="M171 280 L150 322 L192 322 Z" fill="url(#bld)"/>
    <path d="M171 290 L162 322 M171 290 L180 322 M171 300 L156 322 M171 300 L186 322" stroke="#3A567C" stroke-width="1.2" opacity="0.5"/>
    <rect x="169" y="258" width="4" height="24" fill="#9FD8E8"/>
  </g>
  <g>
    <rect x="228" y="288" width="56" height="192" fill="url(#bld)"/>
    <rect x="238" y="266" width="36" height="24" fill="url(#bld)"/><rect x="249" y="250" width="14" height="18" fill="url(#bld)"/>
    <rect x="254" y="208" width="5" height="44" fill="#CFE3EC"/><circle cx="256" cy="208" r="3" fill="#FFE9B0"/>
  </g>
  <g fill="#FFD27F">
    <rect x="28" y="404" width="4" height="4"/><rect x="46" y="428" width="4" height="4"/><rect x="70" y="388" width="4" height="4"/>
    <rect x="100" y="400" width="4" height="4"/><rect x="244" y="312" width="4" height="4"/><rect x="266" y="340" width="4" height="4"/>
    <rect x="250" y="372" width="4" height="4"/><rect x="340" y="404" width="4" height="4"/><rect x="368" y="388" width="4" height="4"/>
    <rect x="404" y="408" width="4" height="4"/><rect x="440" y="420" width="4" height="4"/><rect x="162" y="350" width="4" height="4"/>
  </g>
  <rect x="0" y="456" width="512" height="56" fill="url(#gild)"/>
  <rect x="0" y="498" width="512" height="14" fill="#04091A" opacity="0.7"/>

  <g transform="rotate(-3 250 220)"><path d="M398.0 214.0 Q374.3 257.6 408.0 309.5 Q398.5 263.6 398.0 214.0 Z" fill="url(#wing)" fill-opacity="1" stroke="#4E93AD" stroke-width="1.1" stroke-opacity="0.4"/><path d="M370.3 196.4 Q342.0 239.3 372.2 296.0 Q366.5 247.7 370.3 196.4 Z" fill="url(#wing)" fill-opacity="1" stroke="#4E93AD" stroke-width="1.1" stroke-opacity="0.4"/><path d="M342.7 181.5 Q307.6 225.8 335.4 290.7 Q333.6 237.3 342.7 181.5 Z" fill="url(#wing)" fill-opacity="1" stroke="#4E93AD" stroke-width="1.1" stroke-opacity="0.4"/><path d="M314.9 169.3 Q271.0 216.0 296.1 292.0 Q299.3 231.5 314.9 169.3 Z" fill="url(#wing)" fill-opacity="1" stroke="#4E93AD" stroke-width="1.1" stroke-opacity="0.4"/><path d="M287.2 159.8 Q232.4 208.8 253.6 298.1 Q263.2 229.3 287.2 159.8 Z" fill="url(#wing)" fill-opacity="1" stroke="#4E93AD" stroke-width="1.1" stroke-opacity="0.4"/><path d="M259.4 152.9 Q192.2 203.3 207.7 307.0 Q225.3 229.6 259.4 152.9 Z" fill="url(#wing)" fill-opacity="1" stroke="#4E93AD" stroke-width="1.1" stroke-opacity="0.4"/><path d="M231.6 148.7 Q151.2 198.9 158.6 317.1 Q185.8 231.7 231.6 148.7 Z" fill="url(#wing)" fill-opacity="1" stroke="#4E93AD" stroke-width="1.1" stroke-opacity="0.4"/><path d="M203.7 147.2 Q110.0 195.1 107.0 326.5 Q145.2 234.7 203.7 147.2 Z" fill="url(#wing)" fill-opacity="1" stroke="#4E93AD" stroke-width="1.1" stroke-opacity="0.4"/><path d="M175.9 148.4 Q69.7 191.6 54.1 333.9 Q104.2 237.9 175.9 148.4 Z" fill="url(#wing)" fill-opacity="1" stroke="#4E93AD" stroke-width="1.1" stroke-opacity="0.4"/><path d="M147.9 152.3 Q31.2 188.5 1.7 338.2 Q63.6 240.8 147.9 152.3 Z" fill="url(#wing)" fill-opacity="1" stroke="#4E93AD" stroke-width="1.1" stroke-opacity="0.4"/><path d="M120.0 158.8 Q-4.4 186.0 -48.4 338.7 Q24.6 243.1 120.0 158.8 Z" fill="url(#wing)" fill-opacity="1" stroke="#4E93AD" stroke-width="1.1" stroke-opacity="0.4"/><path d="M92.0 168.0 Q-36.1 184.7 -93.8 335.3 Q-11.7 245.0 92.0 168.0 Z" fill="url(#wing)" fill-opacity="1" stroke="#4E93AD" stroke-width="1.1" stroke-opacity="0.4"/><path d="M382.8 204.0 Q361.6 231.4 378.2 269.8 Q381.4 238.6 382.8 204.0 Z" fill="url(#wing2)" fill-opacity="1" stroke="#4E93AD" stroke-width="1.1" stroke-opacity="0.4"/><path d="M349.7 185.1 Q324.9 211.9 338.8 253.8 Q345.1 221.3 349.7 185.1 Z" fill="url(#wing2)" fill-opacity="1" stroke="#4E93AD" stroke-width="1.1" stroke-opacity="0.4"/><path d="M316.5 170.0 Q285.8 197.9 297.4 246.7 Q307.7 210.5 316.5 170.0 Z" fill="url(#wing2)" fill-opacity="1" stroke="#4E93AD" stroke-width="1.1" stroke-opacity="0.4"/><path d="M283.3 158.7 Q244.7 188.1 253.2 246.2 Q268.9 205.1 283.3 158.7 Z" fill="url(#wing2)" fill-opacity="1" stroke="#4E93AD" stroke-width="1.1" stroke-opacity="0.4"/><path d="M250.1 151.2 Q202.1 181.5 206.2 249.9 Q228.6 203.7 250.1 151.2 Z" fill="url(#wing2)" fill-opacity="1" stroke="#4E93AD" stroke-width="1.1" stroke-opacity="0.4"/><path d="M216.8 147.6 Q159.2 177.3 157.0 255.6 Q187.1 205.2 216.8 147.6 Z" fill="url(#wing2)" fill-opacity="1" stroke="#4E93AD" stroke-width="1.1" stroke-opacity="0.4"/><path d="M183.5 147.8 Q116.9 175.0 106.9 261.3 Q145.1 208.6 183.5 147.8 Z" fill="url(#wing2)" fill-opacity="1" stroke="#4E93AD" stroke-width="1.1" stroke-opacity="0.4"/><path d="M150.1 151.9 Q76.7 174.7 57.9 265.6 Q103.5 213.0 150.1 151.9 Z" fill="url(#wing2)" fill-opacity="1" stroke="#4E93AD" stroke-width="1.1" stroke-opacity="0.4"/><path d="M116.6 159.8 Q39.7 176.5 12.4 267.7 Q63.7 218.0 116.6 159.8 Z" fill="url(#wing2)" fill-opacity="1" stroke="#4E93AD" stroke-width="1.1" stroke-opacity="0.4"/><path d="M367.6 194.8 Q348.4 212.2 356.0 241.4 Q365.7 220.6 367.6 194.8 Z" fill="#FFFEF8" fill-opacity="0.97" stroke="#4E93AD" stroke-width="1.1" stroke-opacity="0.4"/><path d="M324.9 173.4 Q302.3 190.4 307.6 223.1 Q320.3 201.3 324.9 173.4 Z" fill="#FFFEF8" fill-opacity="0.97" stroke="#4E93AD" stroke-width="1.1" stroke-opacity="0.4"/><path d="M282.2 158.4 Q253.1 176.4 256.0 216.2 Q273.6 191.4 282.2 158.4 Z" fill="#FFFEF8" fill-opacity="0.97" stroke="#4E93AD" stroke-width="1.1" stroke-opacity="0.4"/><path d="M239.4 149.6 Q202.5 168.1 201.6 216.2 Q225.4 188.4 239.4 149.6 Z" fill="#FFFEF8" fill-opacity="0.97" stroke="#4E93AD" stroke-width="1.1" stroke-opacity="0.4"/><path d="M196.5 147.3 Q152.7 164.5 146.6 219.1 Q176.6 190.0 196.5 147.3 Z" fill="#FFFEF8" fill-opacity="0.97" stroke="#4E93AD" stroke-width="1.1" stroke-opacity="0.4"/><path d="M153.5 151.3 Q105.9 165.1 94.4 221.8 Q128.6 194.1 153.5 151.3 Z" fill="#FFFEF8" fill-opacity="0.97" stroke="#4E93AD" stroke-width="1.1" stroke-opacity="0.4"/><path d="M398.0 214.0 Q246.0 110.0 92.0 168.0" fill="none" stroke="#FFFEF8" stroke-width="5" stroke-opacity="0.9" stroke-linecap="round"/><circle cx="398.0" cy="214.0" r="9" fill="url(#wing2)"/></g>
</svg>